<?xml version="1.0" encoding="UTF-8"?>
<svg xmlns="http://www.w3.org/2000/svg" version="1.0" width="934.000000pt" height="779.000000pt" viewBox="0 0 934.000000 779.000000" preserveAspectRatio="xMidYMid meet" style="background: transparent;">

<g transform="translate(0.000000,779.000000) scale(0.100000,-0.100000)" fill="#000000" stroke="none">
<path d="M1480 3415 l0 -405 405 0 405 0 0 405 0 405 -405 0 -405 0 0 -405z m376 143 c88 -66 144 -122 144 -144 0 -12 -4 -26 -10 -29 -6 -3 -10 4 -10 17 0 26 -26 68 -42 68 -10 0 -9 -11 8 -92 8 -37 -27 -56 -62 -33 -29 19 -30 34 -3 69 25 32 19 76 -10 76 -36 0 -63 -33 -72 -89 -10 -67 8 -111 46 -111 27 0 32 -9 13 -28 -17 -17 -54 -15 -72 4 -13 12 -16 41 -16 145 0 116 2 131 20 149 25 25 29 25 66 -2z"/>
<path d="M2910 3744 c-92 -18 -157 -57 -189 -115 -19 -34 -23 -52 -19 -105 3 -53 9 -68 32 -93 39 -40 95 -65 204 -91 93 -22 127 -43 120 -77 -10 -51 -150 -57 -252 -10 -32 15 -60 27 -61 27 -2 0 -15 -30 -31 -66 -31 -75 -34 -70 56 -106 46 -19 75 -22 180 -23 120 0 127 1 179 30 64 35 101 87 108 149 14 119 -49 176 -245 220 -40 9 -82 22 -93 29 -27 17 -25 63 4 78 34 19 135 14 197 -10 30 -11 57 -17 61 -13 3 4 17 33 30 65 27 67 26 67 -56 92 -52 16 -182 27 -225 19z"/>
<path d="M7460 3744 c-92 -18 -157 -57 -189 -115 -19 -34 -23 -52 -19 -105 3 -53 9 -68 32 -93 39 -40 95 -65 204 -91 93 -22 127 -43 120 -77 -10 -51 -150 -57 -252 -10 -32 15 -60 27 -61 27 -2 0 -15 -30 -31 -66 -31 -75 -34 -70 56 -106 46 -19 75 -22 180 -23 120 0 127 1 179 30 64 35 101 87 108 149 14 119 -49 176 -245 220 -40 9 -82 22 -93 29 -27 17 -25 63 4 78 34 19 135 14 197 -10 30 -11 57 -17 61 -13 3 4 17 33 30 65 27 67 26 67 -56 92 -52 16 -182 27 -225 19z"/>
<path d="M5170 3416 l0 -326 175 0 c245 0 330 23 408 109 59 65 70 96 75 201 4 92 3 97 -30 160 -38 74 -89 118 -175 150 -50 19 -85 23 -255 28 l-198 5 0 -327z m400 148 c52 -29 82 -95 78 -167 -5 -61 -23 -95 -72 -131 -22 -17 -45 -22 -127 -24 l-99 -4 0 177 0 177 93 -4 c69 -3 102 -9 127 -24z"/>
<path d="M5840 3727 c0 -7 60 -152 133 -322 l133 -310 91 -3 90 -3 137 318 c75 175 136 321 136 326 0 13 -167 8 -177 -5 -6 -7 -47 -102 -93 -211 -77 -182 -85 -197 -96 -175 -6 13 -46 107 -89 211 l-77 187 -94 0 c-70 0 -94 -3 -94 -13z"/>
<path d="M6600 3416 l0 -326 90 0 90 0 0 84 0 84 108 3 c97 4 115 7 168 34 73 38 115 99 122 178 6 79 -13 135 -63 183 -66 64 -110 75 -327 81 l-188 6 0 -327z m350 161 c64 -32 61 -135 -5 -163 -19 -8 -64 -14 -100 -14 l-65 0 0 95 0 95 73 0 c39 0 83 -6 97 -13z"/>
<path d="M3477 3586 c-116 -32 -187 -126 -187 -246 0 -54 5 -78 28 -120 65 -126 233 -173 385 -108 155 67 194 292 70 410 -65 62 -200 92 -296 64z m159 -160 c30 -30 34 -40 34 -86 0 -46 -4 -56 -35 -87 -32 -32 -40 -35 -76 -30 -49 6 -74 28 -90 74 -39 120 82 214 167 129z"/>
<path d="M4177 3586 c-21 -8 -47 -22 -58 -32 -18 -16 -19 -16 -19 9 l0 27 -85 0 -85 0 0 -250 0 -250 90 0 90 0 0 145 c0 86 5 154 11 169 15 33 62 52 97 40 44 -16 52 -45 52 -206 l0 -148 90 0 90 0 0 153 c0 169 6 190 60 202 81 18 100 -23 100 -215 l0 -140 85 0 85 0 -1 178 c-1 216 -12 256 -89 300 -77 44 -161 40 -239 -12 -37 -25 -51 -30 -55 -20 -8 21 -83 55 -134 60 -27 2 -63 -2 -85 -10z"/>
</g>
</svg>