<?xml version="1.0" encoding="UTF-8"?>
<svg xmlns="http://www.w3.org/2000/svg" xmlns:xlink="http://www.w3.org/1999/xlink" version="1.1" width="886px" height="758px" style="shape-rendering: geometricprecision; text-rendering: geometricprecision; fill-rule: evenodd; clip-rule: evenodd; background: transparent;">
<g><path style="opacity:0.951" fill="#69696d" d="M 211.5,377.5 C 217.842,377.334 224.175,377.5 230.5,378C 235.285,378.706 239.785,380.206 244,382.5C 244.667,383.833 244.667,385.167 244,386.5C 242.448,390.333 240.615,394 238.5,397.5C 230.62,392.65 222.286,391.483 213.5,394C 210.833,396.333 210.833,398.667 213.5,401C 222.37,403.05 231.037,405.717 239.5,409C 246.714,413.963 249.214,420.797 247,429.5C 244.002,437.164 238.502,441.997 230.5,444C 216.428,446.847 203.095,444.847 190.5,438C 192.705,433.09 195.038,428.257 197.5,423.5C 207.144,429.918 217.31,431.251 228,427.5C 228.825,425.299 228.325,423.466 226.5,422C 218.511,419.669 210.511,417.336 202.5,415C 192.494,409.138 189.66,400.638 194,389.5C 198.429,383.375 204.262,379.375 211.5,377.5 Z"/></g>
<g><path style="opacity:0.951" fill="#69696d" d="M 666.5,377.5 C 672.842,377.334 679.175,377.5 685.5,378C 690.929,378.753 695.929,380.587 700.5,383.5C 698.59,388.317 696.424,392.984 694,397.5C 685.973,392.699 677.473,391.532 668.5,394C 665.833,396.333 665.833,398.667 668.5,401C 678.152,403.078 687.485,406.078 696.5,410C 702.212,415.669 704.045,422.503 702,430.5C 695.604,441.117 686.104,446.117 673.5,445.5C 665.924,445.182 658.59,443.682 651.5,441C 649.187,440.359 647.52,439.026 646.5,437C 648.001,432.164 650.168,427.664 653,423.5C 662.484,429.975 672.484,431.308 683,427.5C 683.825,425.299 683.325,423.466 681.5,422C 672.236,419.768 663.236,416.768 654.5,413C 646.101,404.616 645.268,395.45 652,385.5C 656.397,381.888 661.23,379.221 666.5,377.5 Z"/></g>
<g><path style="opacity:0.958" fill="#69696d" d="M 439.5,378.5 C 452.171,378.333 464.838,378.5 477.5,379C 501.084,383.658 510.584,397.825 506,421.5C 501.92,433.242 493.754,440.409 481.5,443C 467.504,443.5 453.504,443.667 439.5,443.5C 439.5,421.833 439.5,400.167 439.5,378.5 Z M 458.5,394.5 C 464.509,394.334 470.509,394.501 476.5,395C 486.98,400.151 490.147,408.318 486,419.5C 483.545,424.149 479.712,426.983 474.5,428C 469.177,428.499 463.844,428.666 458.5,428.5C 458.5,417.167 458.5,405.833 458.5,394.5 Z"/></g>
<g><path style="opacity:0.954" fill="#69696d" d="M 505.5,378.5 C 512.755,378.187 519.921,378.52 527,379.5C 532.021,392.738 537.521,405.738 543.5,418.5C 549.359,405.592 555.025,392.592 560.5,379.5C 566.798,378.504 573.132,378.17 579.5,378.5C 570.962,399.916 562.128,421.249 553,442.5C 546.256,443.479 539.422,443.812 532.5,443.5C 523.782,421.729 514.782,400.063 505.5,378.5 Z"/></g>
<g><path style="opacity:0.957" fill="#69696d" d="M 582.5,378.5 C 596.551,378.091 610.551,378.591 624.5,380C 638.669,384.827 644.169,394.66 641,409.5C 637.985,418.514 631.818,424.014 622.5,426C 615.555,427.23 608.555,427.73 601.5,427.5C 601.5,432.833 601.5,438.167 601.5,443.5C 595.167,443.5 588.833,443.5 582.5,443.5C 582.5,421.833 582.5,400.167 582.5,378.5 Z M 601.5,393.5 C 606.913,393.229 612.246,393.729 617.5,395C 622.305,398.089 623.472,402.256 621,407.5C 619.786,409.049 618.286,410.215 616.5,411C 611.511,411.499 606.511,411.666 601.5,411.5C 601.5,405.5 601.5,399.5 601.5,393.5 Z"/></g>
<g><path style="opacity:0.958" fill="#69696d" d="M 272.5,392.5 C 282.756,390.963 292.089,393.13 300.5,399C 308.37,407.491 310.537,417.325 307,428.5C 301.313,439.6 292.146,444.933 279.5,444.5C 258.58,443.336 249.413,432.336 252,411.5C 255.218,401.16 262.051,394.827 272.5,392.5 Z M 276.5,407.5 C 287.473,407.32 291.64,412.654 289,423.5C 286.185,429.169 281.685,431.002 275.5,429C 267.56,421.405 267.893,414.238 276.5,407.5 Z"/></g>
<g><path style="opacity:0.957" fill="#69696d" d="M 341.5,392.5 C 350.293,390.932 357.793,393.266 364,399.5C 370.537,392.958 378.371,390.791 387.5,393C 394.667,394.833 399.167,399.333 401,406.5C 401.5,418.829 401.667,431.162 401.5,443.5C 395.5,443.5 389.5,443.5 383.5,443.5C 383.666,433.828 383.5,424.161 383,414.5C 381.542,408.941 378.042,407.108 372.5,409C 370.951,410.214 369.785,411.714 369,413.5C 368.5,423.494 368.334,433.494 368.5,443.5C 362.167,443.5 355.833,443.5 349.5,443.5C 349.666,433.494 349.5,423.494 349,413.5C 346.975,408.855 343.475,407.355 338.5,409C 336.951,410.214 335.785,411.714 335,413.5C 334.5,423.494 334.334,433.494 334.5,443.5C 328.167,443.5 321.833,443.5 315.5,443.5C 315.5,426.833 315.5,410.167 315.5,393.5C 321.5,393.5 327.5,393.5 333.5,393.5C 333.281,394.675 333.614,395.675 334.5,396.5C 336.765,394.873 339.099,393.539 341.5,392.5 Z"/></g>
</svg>