<?xml version="1.0" encoding="UTF-8"?>
<svg xmlns="http://www.w3.org/2000/svg" xmlns:xlink="http://www.w3.org/1999/xlink" width="3992px" height="1171px" viewBox="0 0 3993 1171" version="1.1">
<g id="surface1">
<path style=" stroke:none;fill-rule:nonzero;fill:rgb(0%,0%,0%);fill-opacity:1;" d="M 171.601562 380.71875 C 333.398438 380.71875 495.195312 380.71875 661.894531 380.71875 C 661.894531 542.050781 661.894531 703.378906 661.894531 869.597656 C 500.097656 869.597656 338.300781 869.597656 171.601562 869.597656 C 171.601562 708.265625 171.601562 546.9375 171.601562 380.71875 Z M 367.71875 532.140625 C 354.324219 543.453125 351.050781 554.320312 349.488281 571.433594 C 348.335938 587.429688 348.546875 603.507812 348.597656 619.539062 C 348.613281 624.660156 348.605469 629.78125 348.585938 634.90625 C 348.539062 652.859375 348.488281 670.820312 350.167969 688.710938 C 350.265625 689.824219 350.367188 690.9375 350.46875 692.085938 C 351.476562 701.132812 353.691406 709.832031 361.050781 715.742188 C 369.5625 722.378906 377.207031 723.820312 387.90625 722.5 C 395.480469 720.105469 401.058594 716.445312 405.210938 709.523438 C 405.210938 707.617188 405.210938 705.714844 405.210938 703.753906 C 403.851562 703.492188 403.851562 703.492188 402.464844 703.222656 C 398.566406 702.460938 394.679688 701.667969 390.792969 700.871094 C 389.171875 700.558594 389.171875 700.558594 387.519531 700.238281 C 379.925781 698.613281 374.75 696.375 370.429688 689.734375 C 364.449219 678.710938 362.851562 667.035156 362.941406 654.632812 C 362.949219 653.449219 362.957031 652.269531 362.964844 651.050781 C 363.371094 629.507812 367.429688 604.03125 383.582031 588.382812 C 392.847656 581.925781 401.050781 578.933594 412.421875 579.730469 C 417.785156 581.804688 419.34375 583.5625 422.246094 588.566406 C 426.082031 599.105469 424.222656 608.667969 420.230469 618.894531 C 417.253906 624.882812 413.394531 630.007812 409.257812 635.242188 C 405.664062 640.234375 403.730469 644.117188 403.859375 650.304688 C 406.40625 658.621094 411.339844 663.042969 418.550781 667.429688 C 425.847656 671.164062 433.199219 673.652344 441.285156 671.113281 C 445.59375 668.960938 448.414062 666.335938 451.359375 662.5625 C 455.007812 650.007812 450.3125 636.40625 447.683594 623.9375 C 445.453125 613.039062 444.484375 602.382812 444.148438 591.269531 C 451.464844 591.859375 455.347656 592.585938 460.191406 598.207031 C 470.320312 610.617188 474.011719 624.640625 475.871094 640.300781 C 478.011719 641.015625 478.011719 641.015625 480.199219 641.742188 C 483.660156 633.847656 485.824219 628.632812 483.082031 620.109375 C 471.125 597.878906 447.976562 579.132812 428.285156 563.867188 C 426.523438 562.417969 424.765625 560.960938 423.011719 559.496094 C 413.148438 551.292969 403.144531 543.417969 392.59375 536.109375 C 391.632812 535.4375 390.667969 534.765625 389.679688 534.070312 C 380.886719 528.09375 377 526.25 367.71875 532.140625 Z M 367.71875 532.140625 "/>
<path style=" stroke:none;fill-rule:nonzero;fill:rgb(0%,0%,0%);fill-opacity:1;" d="M 2120.425781 542.144531 C 2146.515625 564.472656 2152.632812 593.71875 2155.257812 626.585938 C 2157.257812 652.597656 2157.488281 678.621094 2157.429688 704.695312 C 2157.425781 708.105469 2157.421875 711.519531 2157.421875 714.929688 C 2157.417969 723.789062 2157.402344 732.648438 2157.386719 741.507812 C 2157.367188 752.203125 2157.363281 762.898438 2157.355469 773.59375 C 2157.339844 789.730469 2157.3125 805.871094 2157.285156 822.007812 C 2123.023438 822.007812 2088.761719 822.007812 2053.460938 822.007812 C 2051.074219 817.234375 2051.796875 811.90625 2051.789062 806.660156 C 2051.785156 805.367188 2051.777344 804.074219 2051.769531 802.742188 C 2051.753906 799.921875 2051.742188 797.101562 2051.730469 794.28125 C 2051.714844 789.78125 2051.6875 785.28125 2051.65625 780.785156 C 2051.566406 767.988281 2051.488281 755.1875 2051.441406 742.390625 C 2055.085938 676.441406 2055.085938 676.441406 2034.445312 616.144531 C 2027.710938 609.46875 2020.0625 607.3125 2010.734375 607.007812 C 1997.359375 607.746094 1982.730469 610.867188 1972.707031 620.109375 C 1957.496094 644.269531 1960.917969 678.1875 1960.714844 705.539062 C 1960.683594 708.90625 1960.652344 712.277344 1960.621094 715.644531 C 1960.542969 724.449219 1960.472656 733.257812 1960.402344 742.066406 C 1960.316406 752.664062 1960.222656 763.261719 1960.128906 773.859375 C 1959.988281 789.910156 1959.859375 805.957031 1959.726562 822.007812 C 1923.085938 822.007812 1886.445312 822.007812 1848.691406 822.007812 C 1848.605469 812.972656 1848.515625 803.9375 1848.425781 794.628906 C 1848.367188 788.847656 1848.308594 783.0625 1848.25 777.277344 C 1848.152344 768.132812 1848.058594 758.988281 1847.972656 749.84375 C 1847.90625 742.457031 1847.828125 735.070312 1847.75 727.683594 C 1847.71875 724.890625 1847.695312 722.097656 1847.667969 719.304688 C 1849.949219 666.53125 1849.949219 666.53125 1832.828125 618.667969 C 1821.726562 609.582031 1810.847656 607.277344 1796.777344 608.574219 C 1782.984375 611.84375 1771.867188 618.632812 1763.609375 630.207031 C 1759.230469 643.433594 1758.359375 657.5625 1757.628906 671.390625 C 1757.542969 672.878906 1757.542969 672.878906 1757.457031 674.394531 C 1755.878906 702.484375 1755.753906 730.621094 1755.535156 758.746094 C 1755.464844 767.183594 1755.378906 775.625 1755.292969 784.0625 C 1755.167969 796.710938 1755.066406 809.359375 1754.957031 822.007812 C 1718.316406 822.007812 1681.675781 822.007812 1643.921875 822.007812 C 1643.921875 722.070312 1643.921875 622.128906 1643.921875 519.164062 C 1678.660156 519.164062 1713.398438 519.164062 1749.191406 519.164062 C 1749.90625 532.011719 1749.90625 532.011719 1750.632812 545.121094 C 1752.980469 543.21875 1755.332031 541.3125 1757.753906 539.351562 C 1785.058594 518.300781 1819.621094 510.96875 1853.550781 515.269531 C 1860.742188 516.511719 1867.699219 518.402344 1874.648438 520.605469 C 1876.117188 521.066406 1876.117188 521.066406 1877.613281 521.542969 C 1896.074219 527.554688 1916.886719 535.65625 1928.003906 552.332031 C 1935.402344 551.621094 1940.597656 548.953125 1946.75 545.03125 C 1948.671875 543.847656 1950.597656 542.664062 1952.523438 541.480469 C 1953.488281 540.882812 1954.453125 540.285156 1955.449219 539.667969 C 2007.878906 507.175781 2069.460938 502.90625 2120.425781 542.144531 Z M 2120.425781 542.144531 "/>
<path style=" stroke:none;fill-rule:nonzero;fill:rgb(0%,0%,0%);fill-opacity:1;" d="M 2389.453125 426.867188 C 2434.40625 426.867188 2434.40625 426.867188 2453.355469 427.398438 C 2455.523438 427.453125 2457.691406 427.511719 2459.863281 427.566406 C 2465.519531 427.714844 2471.175781 427.871094 2476.832031 428.03125 C 2480.351562 428.128906 2483.875 428.226562 2487.398438 428.324219 C 2622.882812 432.105469 2622.882812 432.105469 2654.789062 442.730469 C 2655.699219 443.03125 2656.609375 443.335938 2657.546875 443.648438 C 2709.757812 461.328125 2747.554688 493.519531 2773.035156 542.238281 C 2773.570312 543.238281 2774.101562 544.242188 2774.652344 545.273438 C 2797.851562 589.453125 2793.277344 654.457031 2779.164062 701.320312 C 2763.753906 743.382812 2726.671875 779.640625 2686.730469 798.769531 C 2600.886719 838.335938 2468.832031 822.007812 2389.453125 822.007812 C 2389.453125 691.609375 2389.453125 561.214844 2389.453125 426.867188 Z M 2500.492188 520.605469 C 2500.492188 589.609375 2500.492188 658.617188 2500.492188 729.710938 C 2521.5 729.757812 2521.5 729.757812 2542.46875 729.183594 C 2544.503906 729.097656 2544.503906 729.097656 2546.578125 729.007812 C 2549.390625 728.886719 2552.207031 728.765625 2555.023438 728.636719 C 2559.269531 728.449219 2563.519531 728.277344 2567.765625 728.105469 C 2602.34375 726.632812 2629.332031 722.578125 2654 696.378906 C 2674.132812 671.824219 2678.25 643.617188 2676.421875 612.898438 C 2674 592.367188 2666.203125 572.835938 2653.347656 556.65625 C 2652.742188 555.835938 2652.136719 555.011719 2651.511719 554.160156 C 2637.660156 536.082031 2614.496094 528.210938 2592.78125 524.929688 C 2580.804688 523.480469 2568.773438 522.722656 2556.730469 522.046875 C 2555.25 521.964844 2553.773438 521.878906 2552.25 521.792969 C 2534.960938 520.859375 2517.832031 520.605469 2500.492188 520.605469 Z M 2500.492188 520.605469 "/>
<path style=" stroke:none;fill-rule:nonzero;fill:rgb(0%,0%,0%);fill-opacity:1;" d="M 3248.910156 426.867188 C 3284.082031 426.867188 3284.082031 426.867188 3301.1875 427.414062 C 3302.4375 427.457031 3303.6875 427.496094 3304.976562 427.535156 C 3306.265625 427.578125 3307.550781 427.617188 3308.878906 427.660156 C 3311.640625 427.746094 3314.40625 427.835938 3317.167969 427.921875 C 3322.929688 428.101562 3328.691406 428.289062 3334.453125 428.476562 C 3340.226562 428.667969 3346 428.847656 3351.773438 429.019531 C 3381.765625 429.914062 3411.703125 431.035156 3441.625 433.34375 C 3442.777344 433.433594 3443.933594 433.523438 3445.125 433.613281 C 3486.476562 436.816406 3523.421875 443.605469 3554.390625 472.964844 C 3557.023438 475.445312 3559.699219 477.648438 3562.550781 479.863281 C 3584.609375 498.855469 3596.199219 528.300781 3599.324219 556.65625 C 3601.609375 598.457031 3594.652344 636.945312 3566.15625 669.144531 C 3551.183594 685.304688 3532.800781 696.34375 3512.800781 705.195312 C 3510.394531 706.265625 3510.394531 706.265625 3507.941406 707.351562 C 3463.867188 725.535156 3406.992188 721.058594 3359.945312 721.058594 C 3359.945312 754.371094 3359.945312 787.683594 3359.945312 822.007812 C 3323.304688 822.007812 3286.660156 822.007812 3248.910156 822.007812 C 3248.910156 691.609375 3248.910156 561.214844 3248.910156 426.867188 Z M 3359.945312 522.046875 C 3359.945312 558.691406 3359.945312 595.335938 3359.945312 633.089844 C 3418.980469 636.792969 3418.980469 636.792969 3472.246094 613.40625 C 3482.414062 602.152344 3487.90625 588.324219 3487.25 572.964844 C 3485.40625 557.835938 3479.757812 544.003906 3468.1875 533.765625 C 3452.375 522.398438 3430.542969 521.808594 3411.769531 521.90625 C 3410.449219 521.90625 3409.128906 521.910156 3407.765625 521.910156 C 3402.882812 521.917969 3397.996094 521.9375 3393.113281 521.957031 C 3382.167969 521.988281 3371.222656 522.015625 3359.945312 522.046875 Z M 3359.945312 522.046875 "/>
<path style=" stroke:none;fill-rule:nonzero;fill:rgb(0%,0%,0%);fill-opacity:1;" d="M 1192.292969 444.171875 C 1193.21875 444.496094 1194.140625 444.820312 1195.09375 445.15625 C 1201.640625 447.640625 1206.589844 450.515625 1211.3125 455.710938 C 1214.222656 464.457031 1212.417969 472.285156 1209.328125 480.675781 C 1208.945312 481.769531 1208.5625 482.867188 1208.164062 483.992188 C 1201.839844 501.527344 1193.757812 518.40625 1185.355469 535.027344 C 1175.199219 535.542969 1166.933594 534.367188 1157.324219 531.148438 C 1154.804688 530.351562 1152.28125 529.558594 1149.757812 528.765625 C 1148.492188 528.367188 1147.222656 527.964844 1145.914062 527.550781 C 1111.539062 516.949219 1063.324219 504.625 1029.332031 521.75 C 1023.71875 525.503906 1020.226562 530.015625 1018.078125 536.46875 C 1017.355469 544.023438 1017.140625 550.351562 1020.421875 557.289062 C 1027.179688 564.582031 1034.828125 568 1044.078125 570.960938 C 1045.203125 571.328125 1046.328125 571.695312 1047.484375 572.070312 C 1059.960938 576.039062 1072.660156 579.070312 1085.390625 582.09375 C 1192.460938 607.660156 1192.460938 607.660156 1218.339844 646.699219 C 1228.09375 663.152344 1232.058594 679.136719 1231.949219 698.164062 C 1231.941406 700.351562 1231.941406 700.351562 1231.929688 702.578125 C 1231.433594 734.5 1219.566406 763.191406 1196.6875 785.570312 C 1187.976562 793.660156 1178.226562 800.0625 1168.050781 806.144531 C 1167.152344 806.6875 1166.253906 807.230469 1165.328125 807.789062 C 1140.730469 822.445312 1116.121094 825.109375 1087.820312 825.132812 C 1085.976562 825.136719 1084.132812 825.144531 1082.238281 825.148438 C 1078.351562 825.15625 1074.464844 825.160156 1070.578125 825.160156 C 1066.675781 825.160156 1062.773438 825.167969 1058.871094 825.1875 C 1015.648438 825.390625 976.902344 823.613281 936.511719 807.765625 C 935.566406 807.398438 934.621094 807.03125 933.648438 806.65625 C 908.277344 796.726562 908.277344 796.726562 902.414062 787.554688 C 898.484375 777.074219 904.222656 764.90625 908.394531 755.308594 C 908.964844 753.964844 909.535156 752.621094 910.125 751.234375 C 911.335938 748.398438 912.558594 745.570312 913.792969 742.742188 C 915.730469 738.277344 917.621094 733.789062 919.507812 729.300781 C 920.757812 726.402344 922.007812 723.503906 923.265625 720.609375 C 923.839844 719.230469 924.417969 717.855469 925.011719 716.4375 C 925.851562 714.539062 925.851562 714.539062 926.710938 712.605469 C 927.195312 711.484375 927.679688 710.363281 928.175781 709.210938 C 930.113281 706.636719 930.113281 706.636719 933.375 705.316406 C 938.53125 705.160156 941.566406 706.625 946.210938 708.851562 C 947.9375 709.660156 949.660156 710.464844 951.433594 711.296875 C 952.335938 711.730469 953.242188 712.160156 954.171875 712.605469 C 971.199219 720.710938 988.179688 728.085938 1006.542969 732.597656 C 1007.722656 732.890625 1008.902344 733.1875 1010.117188 733.488281 C 1040.363281 740.738281 1080.621094 745.453125 1108.65625 728.902344 C 1113.617188 725.4375 1117.074219 722.570312 1119.019531 716.734375 C 1119.5625 711 1119.410156 707.46875 1116.949219 702.222656 C 1098.011719 680.515625 1062.3125 676.003906 1035.921875 669.171875 C 940.816406 644.492188 940.816406 644.492188 915.773438 605.667969 C 905.683594 586.65625 905.34375 565.597656 905.238281 544.488281 C 905.207031 542.988281 905.179688 541.484375 905.148438 539.933594 C 905.007812 511.421875 917.929688 488.546875 937.4375 468.492188 C 1002.738281 406.933594 1114.273438 416.21875 1192.292969 444.171875 Z M 1192.292969 444.171875 "/>
<path style=" stroke:none;fill-rule:nonzero;fill:rgb(0%,0%,0%);fill-opacity:1;" d="M 3926.394531 444.171875 C 3927.320312 444.496094 3928.242188 444.820312 3929.195312 445.15625 C 3935.742188 447.640625 3940.691406 450.515625 3945.414062 455.710938 C 3948.324219 464.457031 3946.519531 472.285156 3943.429688 480.675781 C 3943.046875 481.769531 3942.664062 482.867188 3942.265625 483.992188 C 3935.941406 501.527344 3927.859375 518.40625 3919.457031 535.027344 C 3909.300781 535.542969 3901.035156 534.367188 3891.425781 531.148438 C 3888.90625 530.351562 3886.382812 529.558594 3883.863281 528.765625 C 3882.59375 528.367188 3881.324219 527.964844 3880.015625 527.550781 C 3845.640625 516.949219 3797.425781 504.625 3763.433594 521.75 C 3757.820312 525.503906 3754.332031 530.015625 3752.179688 536.46875 C 3751.457031 544.023438 3751.242188 550.351562 3754.523438 557.289062 C 3761.28125 564.582031 3768.929688 568 3778.179688 570.960938 C 3779.304688 571.328125 3780.429688 571.695312 3781.585938 572.070312 C 3794.0625 576.039062 3806.761719 579.070312 3819.492188 582.09375 C 3926.5625 607.660156 3926.5625 607.660156 3952.441406 646.699219 C 3962.195312 663.152344 3966.160156 679.136719 3966.050781 698.164062 C 3966.042969 700.351562 3966.042969 700.351562 3966.03125 702.578125 C 3965.496094 736.992188 3952.003906 763.460938 3927.9375 787.570312 C 3897.867188 815.824219 3862.054688 825.097656 3821.921875 825.132812 C 3820.078125 825.136719 3818.238281 825.144531 3816.339844 825.148438 C 3812.453125 825.15625 3808.566406 825.160156 3804.679688 825.160156 C 3800.777344 825.160156 3796.875 825.167969 3792.972656 825.1875 C 3749.75 825.390625 3711.003906 823.613281 3670.613281 807.765625 C 3669.667969 807.398438 3668.722656 807.03125 3667.75 806.65625 C 3642.402344 796.734375 3642.402344 796.734375 3636.511719 787.558594 C 3632.835938 777.703125 3637.792969 766.066406 3641.683594 756.933594 C 3642.433594 755.128906 3642.433594 755.128906 3643.199219 753.289062 C 3644.890625 749.265625 3646.621094 745.257812 3648.351562 741.25 C 3649.007812 739.707031 3649.660156 738.164062 3650.332031 736.574219 C 3652.375 731.777344 3654.457031 727 3656.554688 722.230469 C 3657.207031 720.707031 3657.855469 719.179688 3658.527344 717.609375 C 3659.476562 715.492188 3659.476562 715.492188 3660.445312 713.335938 C 3661 712.078125 3661.554688 710.816406 3662.125 709.519531 C 3664.214844 706.636719 3664.214844 706.636719 3667.5 705.269531 C 3672.625 705.171875 3675.695312 706.640625 3680.316406 708.851562 C 3682.039062 709.660156 3683.761719 710.464844 3685.535156 711.296875 C 3686.441406 711.730469 3687.34375 712.160156 3688.273438 712.605469 C 3705.300781 720.710938 3722.28125 728.085938 3740.644531 732.597656 C 3741.824219 732.890625 3743.003906 733.1875 3744.21875 733.488281 C 3774.464844 740.738281 3814.722656 745.453125 3842.757812 728.902344 C 3847.71875 725.4375 3851.175781 722.570312 3853.121094 716.734375 C 3853.664062 711 3853.511719 707.46875 3851.050781 702.222656 C 3832.113281 680.515625 3796.414062 676.003906 3770.023438 669.171875 C 3674.917969 644.492188 3674.917969 644.492188 3649.875 605.667969 C 3639.785156 586.65625 3639.445312 565.597656 3639.339844 544.488281 C 3639.3125 542.988281 3639.28125 541.484375 3639.25 539.933594 C 3639.109375 511.421875 3652.03125 488.546875 3671.539062 468.492188 C 3736.839844 406.933594 3848.375 416.21875 3926.394531 444.171875 Z M 3926.394531 444.171875 "/>
<path style=" stroke:none;fill-rule:nonzero;fill:rgb(0%,0%,0%);fill-opacity:1;" d="M 2861.542969 428.109375 C 2866.695312 428.140625 2871.851562 428.152344 2877.003906 428.167969 C 2887.050781 428.199219 2897.097656 428.246094 2907.144531 428.308594 C 2911.808594 437.375 2916.074219 446.484375 2919.875 455.941406 C 2920.375 457.167969 2920.875 458.394531 2921.386719 459.65625 C 2922.457031 462.289062 2923.523438 464.917969 2924.589844 467.550781 C 2927.46875 474.664062 2930.367188 481.769531 2933.261719 488.878906 C 2933.851562 490.332031 2934.441406 491.785156 2935.050781 493.28125 C 2940.835938 507.488281 2946.6875 521.667969 2952.570312 535.835938 C 2953.066406 537.035156 2953.566406 538.234375 2954.078125 539.46875 C 2957.128906 546.816406 2960.1875 554.164062 2963.246094 561.511719 C 2964.316406 564.085938 2965.390625 566.660156 2966.460938 569.234375 C 2980.566406 603.125 2994.796875 636.957031 3009.53125 670.585938 C 3017.210938 664.148438 3020.675781 656.210938 3024.839844 647.234375 C 3025.59375 645.640625 3026.34375 644.046875 3027.117188 642.40625 C 3035.210938 625.09375 3042.679688 607.527344 3050.089844 589.917969 C 3051.527344 586.515625 3052.96875 583.113281 3054.40625 579.710938 C 3057.300781 572.878906 3060.195312 566.042969 3063.082031 559.207031 C 3069.078125 545.03125 3075.121094 530.875 3081.183594 516.730469 C 3081.710938 515.492188 3082.242188 514.257812 3082.785156 512.984375 C 3089.441406 497.460938 3096.152344 481.964844 3102.992188 466.523438 C 3103.992188 464.265625 3103.992188 464.265625 3105.011719 461.964844 C 3106.230469 459.230469 3107.46875 456.503906 3108.726562 453.789062 C 3109.910156 451.179688 3111.027344 448.535156 3112.082031 445.867188 C 3116.035156 436.53125 3116.035156 436.53125 3120.609375 433.722656 C 3123.964844 432.535156 3127.152344 431.785156 3130.660156 431.191406 C 3132.527344 430.847656 3134.390625 430.5 3136.3125 430.140625 C 3138.363281 429.894531 3140.414062 429.675781 3142.46875 429.480469 C 3143.632812 429.367188 3144.796875 429.253906 3145.996094 429.136719 C 3159.933594 427.988281 3173.917969 427.996094 3187.894531 427.949219 C 3189.097656 427.941406 3190.304688 427.933594 3191.546875 427.925781 C 3215.738281 427.808594 3215.738281 427.808594 3227.277344 431.191406 C 3226.484375 438.539062 3224.773438 444.832031 3221.925781 451.664062 C 3221.523438 452.65625 3221.121094 453.648438 3220.707031 454.667969 C 3219.363281 457.964844 3218.003906 461.253906 3216.644531 464.542969 C 3215.671875 466.914062 3214.699219 469.289062 3213.726562 471.664062 C 3202.273438 499.554688 3190.507812 527.3125 3178.710938 555.058594 C 3176.761719 559.652344 3174.808594 564.246094 3172.859375 568.839844 C 3156.683594 606.941406 3140.402344 645 3123.984375 683 C 3113.761719 706.664062 3103.589844 730.351562 3093.441406 754.046875 C 3092.71875 755.726562 3092 757.40625 3091.261719 759.136719 C 3087.875 767.035156 3084.492188 774.9375 3081.109375 782.835938 C 3075.519531 795.894531 3069.925781 808.953125 3064.328125 822.007812 C 3026.789062 822.515625 2989.347656 820.746094 2951.847656 819.125 C 2943.59375 801.960938 2936.132812 784.488281 2928.714844 766.949219 C 2925.0625 758.3125 2921.398438 749.683594 2917.730469 741.058594 C 2917.355469 740.171875 2916.976562 739.285156 2916.589844 738.371094 C 2908.289062 718.855469 2899.839844 699.402344 2891.375 679.957031 C 2879.550781 652.792969 2867.921875 625.554688 2856.484375 598.222656 C 2853.167969 590.3125 2849.816406 582.417969 2846.453125 574.53125 C 2845.953125 573.363281 2845.453125 572.195312 2844.941406 570.988281 C 2844.1875 569.226562 2844.1875 569.226562 2843.417969 567.425781 C 2833.191406 543.464844 2823.109375 519.441406 2813.144531 495.367188 C 2812.566406 493.976562 2811.988281 492.585938 2811.394531 491.152344 C 2805.914062 477.929688 2800.464844 464.695312 2795.316406 451.339844 C 2794.953125 450.417969 2794.585938 449.496094 2794.210938 448.546875 C 2792.339844 443.601562 2790.960938 439.363281 2791.785156 434.078125 C 2809.257812 422.425781 2841.058594 427.980469 2861.542969 428.109375 Z M 2861.542969 428.109375 "/>
<path style=" stroke:none;fill-rule:nonzero;fill:rgb(0%,0%,0%);fill-opacity:1;" d="M 1550.191406 556.65625 C 1576.335938 579.300781 1592.683594 613.230469 1596.335938 647.511719 C 1598.464844 692.433594 1592.03125 734.789062 1561.726562 770.089844 C 1560.730469 771.277344 1559.738281 772.464844 1558.710938 773.683594 C 1529.773438 807.148438 1485.417969 823.148438 1442.035156 826.332031 C 1393.761719 828.773438 1348.742188 818.3125 1310.8125 787.398438 C 1309.675781 786.496094 1308.535156 785.597656 1307.363281 784.671875 C 1282.378906 763.878906 1263.390625 729.390625 1259.933594 697.054688 C 1256.527344 650.042969 1263.523438 605.125 1294.949219 568.195312 C 1296.097656 566.730469 1296.097656 566.730469 1297.269531 565.238281 C 1320.949219 535.988281 1361.742188 519.421875 1398.25 515.121094 C 1451.492188 510.652344 1508.390625 521.871094 1550.191406 556.65625 Z M 1381.832031 621.011719 C 1368.730469 636.933594 1364.148438 656.191406 1365.328125 676.34375 C 1366.957031 693.085938 1373.707031 711.851562 1385.796875 723.941406 C 1402.460938 737.246094 1422.421875 741.863281 1443.480469 739.808594 C 1448.136719 738.210938 1451.324219 735.816406 1455.015625 732.597656 C 1456.167969 731.636719 1457.320312 730.675781 1458.507812 729.683594 C 1473.773438 716.476562 1485.910156 704.265625 1488.183594 683.5625 C 1489.378906 660.722656 1488.824219 642.433594 1473.058594 624.734375 C 1459.59375 610.359375 1444.949219 600.820312 1424.777344 599.679688 C 1407.792969 600.621094 1393.433594 609.003906 1381.832031 621.011719 Z M 1381.832031 621.011719 "/>
</g>
</svg>
