<?xml version="1.0" encoding="UTF-8"?>
<svg xmlns="http://www.w3.org/2000/svg" xmlns:xlink="http://www.w3.org/1999/xlink" version="1.1" width="803px" height="770px" style="shape-rendering: geometricprecision; text-rendering: geometricprecision; fill-rule: evenodd; clip-rule: evenodd; background: transparent;">
<g><path style="opacity:0.972" fill="#cbcbcb" d="M 152.5,447.5 C 153.931,446.22 154.598,444.553 154.5,442.5C 154.66,440.847 155.326,439.514 156.5,438.5C 157.401,437.71 158.068,436.71 158.5,435.5C 158.435,435.062 158.601,434.728 159,434.5C 167.438,439.988 176.604,441.988 186.5,440.5C 187.496,440.586 188.329,440.252 189,439.5C 189.765,437.934 189.598,436.601 188.5,435.5C 178.859,432.165 169.192,428.665 159.5,425C 156.477,422.823 154.477,419.989 153.5,416.5C 153.15,411.009 153.816,405.676 155.5,400.5C 156.906,400.027 157.573,399.027 157.5,397.5C 157.833,396.5 158.5,395.833 159.5,395.5C 163.752,393.206 168.085,391.206 172.5,389.5C 183.793,387.348 194.793,388.682 205.5,393.5C 206.583,394.365 206.749,395.365 206,396.5C 204.328,401.178 202.161,405.511 199.5,409.5C 191.632,404.648 183.299,403.482 174.5,406C 171.833,408 171.833,410 174.5,412C 184.147,414.077 193.48,417.077 202.5,421C 205.106,422.938 206.939,425.438 208,428.5C 210.307,445.543 202.807,455.043 185.5,457C 173.938,458.063 162.938,456.063 152.5,451C 151.209,449.708 151.209,448.542 152.5,447.5 Z"/></g>
<g><path style="opacity:0.063" fill="#1b1b1b" d="M 487.5,390.5 C 480.833,390.5 474.167,390.5 467.5,390.5C 467.5,391.5 467.5,392.5 467.5,393.5C 466.566,392.432 466.232,391.099 466.5,389.5C 473.687,389.175 480.687,389.509 487.5,390.5 Z"/></g>
<g><path style="opacity:0.054" fill="#202020" d="M 628.5,389.5 C 626.401,390.612 624.067,391.279 621.5,391.5C 623.438,389.837 625.772,389.171 628.5,389.5 Z"/></g>
<g><path style="opacity:0.971" fill="#cbcbcb" d="M 607.5,450.5 C 608.038,448.883 608.371,447.216 608.5,445.5C 608.328,444.508 608.662,443.842 609.5,443.5C 611.293,441.574 612.293,439.241 612.5,436.5C 613.833,436.5 615.167,436.5 616.5,436.5C 623.15,439.554 630.15,441.221 637.5,441.5C 640.01,441.946 642.01,441.28 643.5,439.5C 645.382,438.779 645.715,437.779 644.5,436.5C 643.251,434.864 641.584,433.697 639.5,433C 630.841,431.336 622.508,428.669 614.5,425C 608.338,420.018 606.338,413.851 608.5,406.5C 609.738,404.786 610.405,402.786 610.5,400.5C 613.167,398.5 615.5,396.167 617.5,393.5C 618.514,392.326 619.847,391.66 621.5,391.5C 624.067,391.279 626.401,390.612 628.5,389.5C 638.244,387.749 647.911,388.583 657.5,392C 659.223,392.523 660.556,393.523 661.5,395C 660.012,400.331 657.678,405.164 654.5,409.5C 646.644,404.649 638.311,403.482 629.5,406C 626.539,409.763 627.539,412.096 632.5,413C 641.199,414.59 649.532,417.257 657.5,421C 666.178,429.958 666.678,439.458 659,449.5C 653.674,453.945 647.508,456.445 640.5,457C 628.754,458.207 617.754,456.04 607.5,450.5 Z"/></g>
<g><path style="opacity:0.047" fill="#212121" d="M 172.5,389.5 C 168.085,391.206 163.752,393.206 159.5,395.5C 162.888,391.642 167.222,389.642 172.5,389.5 Z"/></g>
<g><path style="opacity:0.966" fill="#cbcbcb" d="M 400.5,389.5 C 413.171,389.333 425.838,389.5 438.5,390C 462.391,394.928 471.891,409.428 467,433.5C 462.887,445.279 454.72,452.446 442.5,455C 428.171,455.5 413.837,455.667 399.5,455.5C 399.178,433.425 399.511,411.425 400.5,389.5 Z M 446.5,431.5 C 445.094,431.973 444.427,432.973 444.5,434.5C 443.5,434.833 442.833,435.5 442.5,436.5C 439.982,437.264 437.649,438.264 435.5,439.5C 430.5,439.5 425.5,439.5 420.5,439.5C 420.5,428.5 420.5,417.5 420.5,406.5C 425.844,406.334 431.177,406.501 436.5,407C 444.111,409.529 448.111,414.863 448.5,423C 447.767,425.835 447.1,428.668 446.5,431.5 Z"/></g>
<g><path style="opacity:0.975" fill="#cdcdcd" d="M 467.5,393.5 C 467.5,392.5 467.5,391.5 467.5,390.5C 474.167,390.5 480.833,390.5 487.5,390.5C 488.16,394.313 489.326,397.979 491,401.5C 491.498,403.544 492.665,404.878 494.5,405.5C 497.321,413.797 500.655,421.797 504.5,429.5C 506.31,428.586 507.31,426.586 507.5,423.5C 508.931,422.22 509.598,420.553 509.5,418.5C 509.328,417.508 509.662,416.842 510.5,416.5C 511.931,415.22 512.598,413.553 512.5,411.5C 512.328,410.508 512.662,409.842 513.5,409.5C 514.931,408.22 515.598,406.553 515.5,404.5C 515.328,403.508 515.662,402.842 516.5,402.5C 517.931,401.22 518.598,399.553 518.5,397.5C 520.293,395.574 521.293,393.241 521.5,390.5C 524.482,389.835 527.648,389.502 531,389.5C 534.684,389.37 538.184,389.87 541.5,391C 532.167,412.333 522.833,433.667 513.5,455C 506.586,455.811 499.752,455.645 493,454.5C 484.003,434.334 475.503,414 467.5,393.5 Z"/></g>
<g><path style="opacity:0.962" fill="#cacaca" d="M 543.5,389.5 C 557.551,389.091 571.551,389.591 585.5,391C 601.449,397.476 606.615,408.976 601,425.5C 597.256,431.901 591.756,436.068 584.5,438C 577.547,439.163 570.547,439.663 563.5,439.5C 563.5,444.833 563.5,450.167 563.5,455.5C 556.5,455.5 549.5,455.5 542.5,455.5C 542.178,433.425 542.511,411.425 543.5,389.5 Z M 582.5,411.5 C 582.978,415.338 581.978,418.671 579.5,421.5C 574.228,422.4 568.895,422.733 563.5,422.5C 563.5,416.833 563.5,411.167 563.5,405.5C 569.072,404.99 574.405,405.823 579.5,408C 580.636,409.145 581.636,410.312 582.5,411.5 Z"/></g>
<g><path style="opacity:0.047" fill="#252525" d="M 521.5,390.5 C 521.293,393.241 520.293,395.574 518.5,397.5C 518.707,394.759 519.707,392.426 521.5,390.5 Z"/></g>
<g><path style="opacity:0.157" fill="#2a2a2a" d="M 617.5,393.5 C 615.5,396.167 613.167,398.5 610.5,400.5C 611.833,397.167 614.167,394.833 617.5,393.5 Z"/></g>
<g><path style="opacity:0.161" fill="#2c2c2c" d="M 157.5,397.5 C 157.573,399.027 156.906,400.027 155.5,400.5C 155.427,398.973 156.094,397.973 157.5,397.5 Z"/></g>
<g><path style="opacity:0.043" fill="#262626" d="M 518.5,397.5 C 518.598,399.553 517.931,401.22 516.5,402.5C 516.402,400.447 517.069,398.78 518.5,397.5 Z"/></g>
<g><path style="opacity:0.08" fill="#262626" d="M 610.5,400.5 C 610.405,402.786 609.738,404.786 608.5,406.5C 608.259,404.102 608.926,402.102 610.5,400.5 Z"/></g>
<g><path style="opacity:0.975" fill="#cecece" d="M 212.5,435.5 C 212.311,429.718 212.978,424.052 214.5,418.5C 214.328,417.508 214.662,416.842 215.5,416.5C 217.262,415.738 218.262,414.404 218.5,412.5C 218.5,411.833 218.833,411.5 219.5,411.5C 221.404,411.262 222.738,410.262 223.5,408.5C 225.819,408.008 227.819,407.008 229.5,405.5C 242.298,401.105 253.798,403.438 264,412.5C 270.938,423.596 271.272,434.929 265,446.5C 256.05,455.702 245.216,458.869 232.5,456C 221.568,453.236 214.901,446.402 212.5,435.5 Z M 250.5,432.5 C 249.463,433.93 248.796,435.597 248.5,437.5C 247.5,437.833 246.833,438.5 246.5,439.5C 243.57,440.299 240.57,440.632 237.5,440.5C 231.92,437.03 230.087,432.03 232,425.5C 235.535,419.355 240.368,418.021 246.5,421.5C 249.201,424.617 250.534,428.284 250.5,432.5 Z"/></g>
<g><path style="opacity:0.965" fill="#cdcdcd" d="M 327.5,408.5 C 329.027,408.573 330.027,407.906 330.5,406.5C 338.778,402.424 347.111,402.591 355.5,407C 360.293,411.422 362.793,416.922 363,423.5C 363.5,434.161 363.667,444.828 363.5,455.5C 356.833,455.5 350.167,455.5 343.5,455.5C 343.666,445.494 343.5,435.494 343,425.5C 341.427,420.965 338.261,419.465 333.5,421C 331.951,422.214 330.785,423.714 330,425.5C 329.5,435.494 329.334,445.494 329.5,455.5C 322.833,455.5 316.167,455.5 309.5,455.5C 309.666,445.161 309.5,434.828 309,424.5C 306.469,420.21 302.969,419.377 298.5,422C 297.107,423.171 296.273,424.671 296,426.5C 295.5,436.161 295.334,445.828 295.5,455.5C 289.167,455.5 282.833,455.5 276.5,455.5C 276.5,438.833 276.5,422.167 276.5,405.5C 282.5,405.5 288.5,405.5 294.5,405.5C 294.5,406.167 294.5,406.833 294.5,407.5C 295.322,409.55 296.322,409.217 297.5,406.5C 300.68,404.133 304.347,403.133 308.5,403.5C 315.126,403.231 320.626,405.564 325,410.5C 325.708,409.619 326.542,408.953 327.5,408.5 Z"/></g>
<g><path style="opacity:0.467" fill="#898989" d="M 487.5,390.5 C 490.011,395.342 492.344,400.342 494.5,405.5C 492.665,404.878 491.498,403.544 491,401.5C 489.326,397.979 488.16,394.313 487.5,390.5 Z"/></g>
<g><path style="opacity:0.024" fill="#242424" d="M 229.5,405.5 C 227.819,407.008 225.819,408.008 223.5,408.5C 224.911,406.461 226.911,405.461 229.5,405.5 Z"/></g>
<g><path style="opacity:0.08" fill="#242424" d="M 155.5,400.5 C 153.816,405.676 153.15,411.009 153.5,416.5C 152.355,412.689 152.188,408.689 153,404.5C 153.2,402.68 154.034,401.347 155.5,400.5 Z"/></g>
<g><path style="opacity:0.02" fill="#222222" d="M 294.5,405.5 C 288.5,405.5 282.5,405.5 276.5,405.5C 276.5,422.167 276.5,438.833 276.5,455.5C 275.503,438.675 275.17,421.675 275.5,404.5C 282.022,404.177 288.355,404.51 294.5,405.5 Z"/></g>
<g><path style="opacity:0.106" fill="#2a2a2a" d="M 297.5,406.5 C 296.322,409.217 295.322,409.55 294.5,407.5C 295.391,406.89 296.391,406.557 297.5,406.5 Z"/></g>
<g><path style="opacity:0.118" fill="#2c2c2c" d="M 330.5,406.5 C 330.027,407.906 329.027,408.573 327.5,408.5C 327.973,407.094 328.973,406.427 330.5,406.5 Z"/></g>
<g><path style="opacity:0.039" fill="#262626" d="M 515.5,404.5 C 515.598,406.553 514.931,408.22 513.5,409.5C 513.402,407.447 514.069,405.78 515.5,404.5 Z"/></g>
<g><path style="opacity:0.102" fill="#292929" d="M 223.5,408.5 C 222.738,410.262 221.404,411.262 219.5,411.5C 220.262,409.738 221.596,408.738 223.5,408.5 Z"/></g>
<g><path style="opacity:0.084" fill="#272727" d="M 582.5,411.5 C 583.629,413.628 583.796,415.961 583,418.5C 582.578,420.426 581.411,421.426 579.5,421.5C 581.978,418.671 582.978,415.338 582.5,411.5 Z"/></g>
<g><path style="opacity:0.09" fill="#2d2d2d" d="M 218.5,412.5 C 218.262,414.404 217.262,415.738 215.5,416.5C 215.738,414.596 216.738,413.262 218.5,412.5 Z"/></g>
<g><path style="opacity:0.035" fill="#262626" d="M 512.5,411.5 C 512.598,413.553 511.931,415.22 510.5,416.5C 510.402,414.447 511.069,412.78 512.5,411.5 Z"/></g>
<g><path style="opacity:0.031" fill="#262626" d="M 509.5,418.5 C 509.598,420.553 508.931,422.22 507.5,423.5C 507.402,421.447 508.069,419.78 509.5,418.5 Z"/></g>
<g><path style="opacity:0.057" fill="#232323" d="M 214.5,418.5 C 212.978,424.052 212.311,429.718 212.5,435.5C 211.357,432.024 211.19,428.358 212,424.5C 212.24,422.148 213.073,420.148 214.5,418.5 Z"/></g>
<g><path style="opacity:0.055" fill="#252525" d="M 507.5,423.5 C 507.31,426.586 506.31,428.586 504.5,429.5C 504.992,427.181 505.992,425.181 507.5,423.5 Z"/></g>
<g><path style="opacity:0.09" fill="#2d2d2d" d="M 446.5,431.5 C 446.573,433.027 445.906,434.027 444.5,434.5C 444.427,432.973 445.094,431.973 446.5,431.5 Z"/></g>
<g><path style="opacity:0.169" fill="#2b2b2b" d="M 250.5,432.5 C 250.88,434.698 250.213,436.365 248.5,437.5C 248.796,435.597 249.463,433.93 250.5,432.5 Z"/></g>
<g><path style="opacity:0.008" fill="#343434" d="M 616.5,436.5 C 615.167,436.5 613.833,436.5 612.5,436.5C 613.634,434.219 614.968,434.219 616.5,436.5 Z"/></g>
<g><path style="opacity:0.039" fill="#282828" d="M 158.5,435.5 C 158.068,436.71 157.401,437.71 156.5,438.5C 156.285,436.821 156.952,435.821 158.5,435.5 Z"/></g>
<g><path style="opacity:0.165" fill="#2c2c2c" d="M 644.5,436.5 C 645.715,437.779 645.382,438.779 643.5,439.5C 643.557,438.391 643.89,437.391 644.5,436.5 Z"/></g>
<g><path style="opacity:0.098" fill="#292929" d="M 188.5,435.5 C 189.598,436.601 189.765,437.934 189,439.5C 188.329,440.252 187.496,440.586 186.5,440.5C 187.942,439.18 188.608,437.514 188.5,435.5 Z"/></g>
<g><path style="opacity:0.165" fill="#2f2f2f" d="M 248.5,437.5 C 248.5,438.833 247.833,439.5 246.5,439.5C 246.833,438.5 247.5,437.833 248.5,437.5 Z"/></g>
<g><path style="opacity:0.039" fill="#202020" d="M 442.5,436.5 C 440.824,438.834 438.491,439.834 435.5,439.5C 437.649,438.264 439.982,437.264 442.5,436.5 Z"/></g>
<g><path style="opacity:0.055" fill="#252525" d="M 612.5,436.5 C 612.293,439.241 611.293,441.574 609.5,443.5C 609.707,440.759 610.707,438.426 612.5,436.5 Z"/></g>
<g><path style="opacity:0.036" fill="#1f1f1f" d="M 246.5,439.5 C 246.389,440.117 246.056,440.617 245.5,441C 242.633,441.801 239.966,441.634 237.5,440.5C 240.57,440.632 243.57,440.299 246.5,439.5 Z"/></g>
<g><path style="opacity:0.034" fill="#202020" d="M 643.5,439.5 C 642.01,441.28 640.01,441.946 637.5,441.5C 639.302,440.542 641.302,439.875 643.5,439.5 Z"/></g>
<g><path style="opacity:0.039" fill="#262626" d="M 154.5,442.5 C 154.598,444.553 153.931,446.22 152.5,447.5C 152.402,445.447 153.069,443.78 154.5,442.5 Z"/></g>
<g><path style="opacity:0.035" fill="#202020" d="M 608.5,445.5 C 608.371,447.216 608.038,448.883 607.5,450.5C 606.322,448.662 606.655,446.995 608.5,445.5 Z"/></g>
</svg>