<?xml version="1.0" encoding="UTF-8"?>
<svg xmlns="http://www.w3.org/2000/svg" xmlns:xlink="http://www.w3.org/1999/xlink" version="1.1" width="652px" height="489px" style="shape-rendering: geometricprecision; text-rendering: geometricprecision; fill-rule: evenodd; clip-rule: evenodd; background: transparent;">
<g><path style="opacity:0.978" fill="#adadbc" d="M 83.5,263.5 C 89.8421,263.334 96.1754,263.5 102.5,264C 107.929,264.753 112.929,266.587 117.5,269.5C 115.59,274.317 113.424,278.984 111,283.5C 102.973,278.699 94.4726,277.532 85.5,280C 82.8333,282.333 82.8333,284.667 85.5,287C 95.1519,289.078 104.485,292.078 113.5,296C 119.212,301.669 121.045,308.503 119,316.5C 112.604,327.117 103.104,332.117 90.5,331.5C 82.9236,331.182 75.5902,329.682 68.5,327C 66.1868,326.359 64.5202,325.026 63.5,323C 65.0014,318.164 67.1681,313.664 70,309.5C 79.484,315.975 89.484,317.308 100,313.5C 100.825,311.299 100.325,309.466 98.5,308C 89.2361,305.768 80.2361,302.768 71.5,299C 63.1014,290.616 62.268,281.45 69,271.5C 73.397,267.888 78.2303,265.221 83.5,263.5 Z"/></g>
<g><path style="opacity:0.98" fill="#adadbc" d="M 539.5,263.5 C 548.647,262.954 557.647,263.788 566.5,266C 568.664,266.914 570.664,268.081 572.5,269.5C 570.809,274.414 568.643,279.08 566,283.5C 558.013,278.562 549.513,277.395 540.5,280C 537.747,283.854 538.747,286.521 543.5,288C 552.286,289.289 560.619,291.956 568.5,296C 576.221,303.166 577.388,311.333 572,320.5C 568.525,325.626 563.691,328.792 557.5,330C 545.893,332.295 534.559,331.295 523.5,327C 521.445,326.313 519.779,325.146 518.5,323.5C 520.41,318.683 522.576,314.016 525,309.5C 533.792,315.27 543.292,317.103 553.5,315C 557.439,311.482 556.772,308.816 551.5,307C 542.806,305.411 534.473,302.744 526.5,299C 519.053,292.026 517.553,283.86 522,274.5C 526.578,268.638 532.411,264.972 539.5,263.5 Z"/></g>
<g><path style="opacity:0.968" fill="#adadbc" d="M 311.5,264.5 C 324.504,264.333 337.504,264.5 350.5,265C 373.739,269.927 382.905,284.094 378,307.5C 373.887,319.279 365.72,326.446 353.5,329C 339.504,329.5 325.504,329.667 311.5,329.5C 311.5,307.833 311.5,286.167 311.5,264.5 Z M 331.5,280.5 C 338.257,280.123 344.924,280.623 351.5,282C 357.193,285.546 360.193,290.713 360.5,297.5C 359.573,306.254 354.907,311.754 346.5,314C 341.511,314.499 336.511,314.666 331.5,314.5C 331.5,303.167 331.5,291.833 331.5,280.5 Z"/></g>
<g><path style="opacity:0.984" fill="#adadbc" d="M 378.5,264.5 C 385.422,264.188 392.256,264.521 399,265.5C 404.286,278.7 409.953,291.7 416,304.5C 421.795,291.249 427.295,277.916 432.5,264.5C 439.175,264.334 445.842,264.5 452.5,265C 443.143,286.067 433.976,307.234 425,328.5C 418.333,329.833 411.667,329.833 405,328.5C 395.669,307.333 386.836,285.999 378.5,264.5 Z"/></g>
<g><path style="opacity:0.968" fill="#acacbc" d="M 454.5,264.5 C 468.551,264.091 482.551,264.591 496.5,266C 508.078,269.25 514.078,276.917 514.5,289C 513.334,301.027 507.001,308.693 495.5,312C 488.547,313.163 481.547,313.663 474.5,313.5C 474.5,318.833 474.5,324.167 474.5,329.5C 467.833,329.5 461.167,329.5 454.5,329.5C 454.5,307.833 454.5,286.167 454.5,264.5 Z M 474.5,279.5 C 479.599,279.175 484.599,279.675 489.5,281C 494.609,284.366 495.776,288.866 493,294.5C 491.581,295.46 490.081,296.293 488.5,297C 483.845,297.499 479.179,297.666 474.5,297.5C 474.5,291.5 474.5,285.5 474.5,279.5 Z"/></g>
<g><path style="opacity:0.977" fill="#adadbc" d="M 144.5,278.5 C 171.359,276.187 182.859,288.187 179,314.5C 173.852,325.795 165.018,331.128 152.5,330.5C 135.096,330.319 125.429,321.652 123.5,304.5C 124.363,290.732 131.363,282.065 144.5,278.5 Z M 148.5,293.5 C 160.04,293.556 164.206,299.223 161,310.5C 158.058,315.153 153.891,316.653 148.5,315C 146,313.833 144.167,312 143,309.5C 141.016,302.66 142.85,297.327 148.5,293.5 Z"/></g>
<g><path style="opacity:0.974" fill="#adadbc" d="M 213.5,278.5 C 222.399,276.738 229.899,279.071 236,285.5C 245.291,277.577 255.458,276.41 266.5,282C 269.531,284.559 271.698,287.726 273,291.5C 274.348,304.125 274.848,316.791 274.5,329.5C 268.167,329.5 261.833,329.5 255.5,329.5C 255.666,319.494 255.5,309.494 255,299.5C 252.975,294.855 249.475,293.355 244.5,295C 242.951,296.214 241.785,297.714 241,299.5C 240.5,309.494 240.334,319.494 240.5,329.5C 234.167,329.5 227.833,329.5 221.5,329.5C 221.666,319.161 221.5,308.828 221,298.5C 218.11,294.172 214.277,293.339 209.5,296C 208.107,297.171 207.273,298.671 207,300.5C 206.5,310.161 206.334,319.828 206.5,329.5C 200.167,329.5 193.833,329.5 187.5,329.5C 187.5,312.833 187.5,296.167 187.5,279.5C 193.5,279.5 199.5,279.5 205.5,279.5C 205.343,280.873 205.51,282.207 206,283.5C 208.17,281.177 210.67,279.51 213.5,278.5 Z"/></g>
</svg>